<svg xmlns="http://www.w3.org/2000/svg" viewBox="0 0 512 336.15"><defs><style>.a,.d,.e{fill:#fff;}.a{stroke:#161a1d;stroke-miterlimit:10;stroke-width:0.99px;}.b{fill:#161a1d;}.c,.f,.h,.i{fill:#326ce5;}.e,.f,.h,.i{fill-rule:evenodd;}.g{fill:#2f383f;}.h,.i,.j{stroke:#fff;stroke-linejoin:round;}.h,.i{stroke-linecap:square;}.h{stroke-dashoffset:8.92px;stroke-width:1.29px;stroke-dasharray:3.86 3.86;}.i{stroke-dashoffset:9.44px;stroke-width:1.29px;stroke-dasharray:3.86 3.86;}.j{fill:none;stroke-width:1.29px;}.k{fill:#232f3e;}</style></defs><rect class="a" x="128.96" y="0.5" width="271.32" height="335.16"/><path class="b" d="M144.34,105a2.89,2.89,0,0,1-1.09,2.39,4.86,4.86,0,0,1-3,.86,7.24,7.24,0,0,1-3.16-.6v-1.76a8.79,8.79,0,0,0,1.66.58,6.94,6.94,0,0,0,1.63.21,2.59,2.59,0,0,0,1.63-.42,1.38,1.38,0,0,0,.53-1.13A1.41,1.41,0,0,0,142,104a7.48,7.48,0,0,0-2-1,5.3,5.3,0,0,1-2.2-1.44,3.09,3.09,0,0,1-.64-2,2.71,2.71,0,0,1,1-2.24,4.16,4.16,0,0,1,2.72-.82,7.93,7.93,0,0,1,3.25.72l-.59,1.52a7,7,0,0,0-2.71-.64,2.09,2.09,0,0,0-1.37.39,1.3,1.3,0,0,0-.47,1,1.41,1.41,0,0,0,.19.76,1.94,1.94,0,0,0,.61.6,11.66,11.66,0,0,0,1.55.74,8.23,8.23,0,0,1,1.83,1,2.83,2.83,0,0,1,.86,1A3.11,3.11,0,0,1,144.34,105Z" transform="translate(-0.25 -88.09)"/><path class="b" d="M149.83,108.24a3.78,3.78,0,0,1-3-1.14,5.79,5.79,0,0,1,0-6.62A4,4,0,0,1,150,99.31a5.68,5.68,0,0,1,2.45.51l-.55,1.47a5.53,5.53,0,0,0-1.92-.45c-1.49,0-2.23,1-2.23,3a3.6,3.6,0,0,0,.55,2.18,2,2,0,0,0,1.64.72,4.74,4.74,0,0,0,2.31-.6v1.59a3.67,3.67,0,0,1-1,.42A6.5,6.5,0,0,1,149.83,108.24Z" transform="translate(-0.25 -88.09)"/><path class="b" d="M159.65,108.09l-.37-1.2h-.06A3.61,3.61,0,0,1,158,108a4,4,0,0,1-1.63.28,2.78,2.78,0,0,1-2-.68,2.6,2.6,0,0,1-.71-1.94,2.3,2.3,0,0,1,1-2,5.79,5.79,0,0,1,3-.74l1.49,0v-.46a1.8,1.8,0,0,0-.38-1.24,1.6,1.6,0,0,0-1.2-.41,4.16,4.16,0,0,0-1.27.2,9.79,9.79,0,0,0-1.17.46l-.59-1.31a6.34,6.34,0,0,1,1.53-.56,7,7,0,0,1,1.58-.19,3.73,3.73,0,0,1,2.48.72,2.81,2.81,0,0,1,.84,2.25v5.81Zm-2.73-1.25a2.26,2.26,0,0,0,1.6-.56,2,2,0,0,0,.61-1.56V104L158,104a3.74,3.74,0,0,0-1.88.43,1.32,1.32,0,0,0-.59,1.18,1.13,1.13,0,0,0,.34.89A1.48,1.48,0,0,0,156.92,106.84Z" transform="translate(-0.25 -88.09)"/><path class="b" d="M165.35,108.09h-1.84V96h1.84Z" transform="translate(-0.25 -88.09)"/><path class="b" d="M171.73,108.24a4.19,4.19,0,0,1-3.15-1.17,4.47,4.47,0,0,1-1.13-3.23,4.88,4.88,0,0,1,1.05-3.32,3.62,3.62,0,0,1,2.89-1.21,3.56,3.56,0,0,1,2.7,1,4,4,0,0,1,1,2.85v1h-5.74a2.83,2.83,0,0,0,.67,1.93,2.37,2.37,0,0,0,1.8.67,7.15,7.15,0,0,0,1.43-.14,8.12,8.12,0,0,0,1.41-.48v1.49a5.86,5.86,0,0,1-1.36.45A8.12,8.12,0,0,1,171.73,108.24Zm-.34-7.54a1.84,1.84,0,0,0-1.4.55,2.6,2.6,0,0,0-.62,1.61h3.91a2.32,2.32,0,0,0-.52-1.61A1.74,1.74,0,0,0,171.39,100.7Z" transform="translate(-0.25 -88.09)"/><path class="b" d="M182.55,108.09l-.36-1.2h-.07a3.53,3.53,0,0,1-1.25,1.07,4,4,0,0,1-1.62.28,2.75,2.75,0,0,1-2-.68,2.57,2.57,0,0,1-.72-1.94,2.3,2.3,0,0,1,1-2,5.83,5.83,0,0,1,3-.74l1.49,0v-.46a1.76,1.76,0,0,0-.39-1.24,1.6,1.6,0,0,0-1.2-.41,4.16,4.16,0,0,0-1.27.2,9.79,9.79,0,0,0-1.17.46l-.59-1.31A6.26,6.26,0,0,1,179,99.5a6.86,6.86,0,0,1,1.57-.19A3.69,3.69,0,0,1,183,100a2.81,2.81,0,0,1,.84,2.25v5.81Zm-2.73-1.25a2.3,2.3,0,0,0,1.61-.56,2,2,0,0,0,.6-1.56V104l-1.11,0a3.74,3.74,0,0,0-1.88.43,1.32,1.32,0,0,0-.59,1.18,1.14,1.14,0,0,0,.35.89A1.45,1.45,0,0,0,179.82,106.84Z" transform="translate(-0.25 -88.09)"/><path class="b" d="M190.82,99.31a3,3,0,0,1,2.51,1.17,6.43,6.43,0,0,1,0,6.58,3.31,3.31,0,0,1-5.07,0h-.13l-.33,1h-1.37V96h1.83v2.88c0,.22,0,.53,0,1s0,.69-.05.81h.08A2.9,2.9,0,0,1,190.82,99.31Zm-.47,1.5a1.86,1.86,0,0,0-1.6.65,3.82,3.82,0,0,0-.5,2.18v.12a4.05,4.05,0,0,0,.5,2.28,1.85,1.85,0,0,0,1.63.71,1.63,1.63,0,0,0,1.47-.78,4,4,0,0,0,.51-2.23C192.36,101.79,191.69,100.81,190.35,100.81Z" transform="translate(-0.25 -88.09)"/><path class="b" d="M198.19,108.09h-1.83V96h1.83Z" transform="translate(-0.25 -88.09)"/><path class="b" d="M204.58,108.24a4.18,4.18,0,0,1-3.15-1.17,4.43,4.43,0,0,1-1.13-3.23,4.88,4.88,0,0,1,1-3.32,3.61,3.61,0,0,1,2.89-1.21,3.56,3.56,0,0,1,2.7,1,4,4,0,0,1,1,2.85v1h-5.75a2.83,2.83,0,0,0,.68,1.93,2.37,2.37,0,0,0,1.8.67,7,7,0,0,0,1.42-.14,8.2,8.2,0,0,0,1.42-.48v1.49a5.86,5.86,0,0,1-1.36.45A8.19,8.19,0,0,1,204.58,108.24Zm-.34-7.54a1.84,1.84,0,0,0-1.4.55,2.67,2.67,0,0,0-.63,1.61h3.92a2.37,2.37,0,0,0-.52-1.61A1.74,1.74,0,0,0,204.24,100.7Z" transform="translate(-0.25 -88.09)"/><path class="b" d="M219.19,98.13a3.07,3.07,0,0,0-2.52,1.13,6,6,0,0,0,0,6.32,3.15,3.15,0,0,0,2.56,1.07,7.17,7.17,0,0,0,1.41-.14c.45-.1.92-.22,1.41-.37v1.59a8.54,8.54,0,0,1-3,.51,4.84,4.84,0,0,1-3.84-1.51,6.32,6.32,0,0,1-1.34-4.34,6.92,6.92,0,0,1,.65-3.11,4.6,4.6,0,0,1,1.88-2,5.71,5.71,0,0,1,2.89-.71,7.19,7.19,0,0,1,3.23.73l-.67,1.55a11.05,11.05,0,0,0-1.22-.48A4.66,4.66,0,0,0,219.19,98.13Z" transform="translate(-0.25 -88.09)"/><path class="b" d="M231.91,103.76a4.72,4.72,0,0,1-1.08,3.3,3.88,3.88,0,0,1-3,1.18,4.16,4.16,0,0,1-2.13-.54,3.63,3.63,0,0,1-1.43-1.57,5.37,5.37,0,0,1-.5-2.37,4.64,4.64,0,0,1,1.08-3.27,3.89,3.89,0,0,1,3-1.18,3.8,3.8,0,0,1,3,1.2A4.66,4.66,0,0,1,231.91,103.76Zm-6.27,0c0,2,.73,3,2.2,3s2.19-1,2.19-3-.74-3-2.2-3a1.86,1.86,0,0,0-1.67.76A3.85,3.85,0,0,0,225.64,103.76Z" transform="translate(-0.25 -88.09)"/><path class="b" d="M241.6,108.09h-1.84v-5.3a2.29,2.29,0,0,0-.4-1.49,1.55,1.55,0,0,0-1.28-.49,2,2,0,0,0-1.69.68,3.79,3.79,0,0,0-.54,2.3v4.3H234V99.47h1.43l.26,1.13h.09a2.53,2.53,0,0,1,1.11-.95,3.63,3.63,0,0,1,1.59-.34c2.06,0,3.1,1,3.1,3.16Z" transform="translate(-0.25 -88.09)"/><path class="b" d="M247.36,106.76a4.51,4.51,0,0,0,1.34-.21v1.38a3.71,3.71,0,0,1-.78.22,5.47,5.47,0,0,1-1,.09c-1.73,0-2.6-.91-2.6-2.74v-4.65h-1.18V100l1.26-.67.63-1.82h1.13v1.92h2.45v1.38h-2.45v4.62a1.28,1.28,0,0,0,.33,1A1.17,1.17,0,0,0,247.36,106.76Z" transform="translate(-0.25 -88.09)"/><path class="b" d="M254.79,99.31a4.51,4.51,0,0,1,.91.08l-.18,1.71a3,3,0,0,0-.81-.1,2.35,2.35,0,0,0-1.78.72,2.61,2.61,0,0,0-.68,1.86v4.51h-1.83V99.47h1.43l.25,1.52h.09a3.42,3.42,0,0,1,1.12-1.23A2.65,2.65,0,0,1,254.79,99.31Z" transform="translate(-0.25 -88.09)"/><path class="b" d="M265,103.76a4.72,4.72,0,0,1-1.09,3.3,3.86,3.86,0,0,1-3,1.18,4.17,4.17,0,0,1-2.14-.54,3.61,3.61,0,0,1-1.42-1.57,5.23,5.23,0,0,1-.5-2.37,4.68,4.68,0,0,1,1.07-3.27,3.89,3.89,0,0,1,3-1.18,3.82,3.82,0,0,1,3,1.2A4.71,4.71,0,0,1,265,103.76Zm-6.28,0c0,2,.74,3,2.21,3s2.18-1,2.18-3-.73-3-2.2-3a1.87,1.87,0,0,0-1.67.76A3.94,3.94,0,0,0,258.67,103.76Z" transform="translate(-0.25 -88.09)"/><path class="b" d="M268.88,108.09h-1.83V96h1.83Z" transform="translate(-0.25 -88.09)"/><path class="b" d="M273.33,108.09H271.5V96h1.83Z" transform="translate(-0.25 -88.09)"/><path class="b" d="M279.71,108.24a4.17,4.17,0,0,1-3.14-1.17,4.43,4.43,0,0,1-1.13-3.23,4.88,4.88,0,0,1,1.05-3.32,3.61,3.61,0,0,1,2.89-1.21,3.56,3.56,0,0,1,2.7,1,4,4,0,0,1,1,2.85v1h-5.74a2.83,2.83,0,0,0,.68,1.93,2.35,2.35,0,0,0,1.8.67,7,7,0,0,0,1.42-.14,8.2,8.2,0,0,0,1.42-.48v1.49a5.86,5.86,0,0,1-1.36.45A8.23,8.23,0,0,1,279.71,108.24Zm-.33-7.54a1.84,1.84,0,0,0-1.4.55,2.67,2.67,0,0,0-.63,1.61h3.91a2.37,2.37,0,0,0-.51-1.61A1.74,1.74,0,0,0,279.38,100.7Z" transform="translate(-0.25 -88.09)"/><path class="b" d="M289.52,99.31a4.51,4.51,0,0,1,.91.08l-.18,1.71a3.1,3.1,0,0,0-.81-.1,2.34,2.34,0,0,0-1.78.72,2.57,2.57,0,0,0-.68,1.86v4.51h-1.83V99.47h1.43l.24,1.52h.09A3.42,3.42,0,0,1,288,99.76,2.68,2.68,0,0,1,289.52,99.31Z" transform="translate(-0.25 -88.09)"/><path class="b" d="M297.82,105.63a2.27,2.27,0,0,1-.92,1.94,4.42,4.42,0,0,1-2.64.67,6.14,6.14,0,0,1-2.76-.52v-1.58a6.87,6.87,0,0,0,2.83.7c1.12,0,1.69-.34,1.69-1a.85.85,0,0,0-.19-.55,2.48,2.48,0,0,0-.62-.45,9.76,9.76,0,0,0-1.19-.53,5.51,5.51,0,0,1-2-1.15,2.16,2.16,0,0,1-.53-1.5,2,2,0,0,1,.89-1.72,4.25,4.25,0,0,1,2.43-.61,6.94,6.94,0,0,1,2.88.62l-.6,1.38a6.29,6.29,0,0,0-2.34-.58c-1,0-1.45.27-1.45.83a.81.81,0,0,0,.38.68,7.76,7.76,0,0,0,1.64.77,7.79,7.79,0,0,1,1.56.76,2.2,2.2,0,0,1,.71.79A2.25,2.25,0,0,1,297.82,105.63Z" transform="translate(-0.25 -88.09)"/><path class="c" d="M48.39,227.7a2.86,2.86,0,0,0-1.06.27l-14.45,6.91a2.74,2.74,0,0,0-1.5,1.86l-3.56,15.51a2.73,2.73,0,0,0,.37,2.1c0,.08.11.15.16.22l10,12.44a2.77,2.77,0,0,0,2.16,1h16a2.77,2.77,0,0,0,2.16-1l10-12.44a2.74,2.74,0,0,0,.54-2.32l-3.58-15.52a2.72,2.72,0,0,0-1.49-1.86L49.73,228A2.78,2.78,0,0,0,48.39,227.7Z" transform="translate(-0.25 -88.09)"/><path class="d" d="M48.39,226.58a3.08,3.08,0,0,0-1.12.28L32,234.15a2.91,2.91,0,0,0-1.58,2l-3.76,16.37a2.85,2.85,0,0,0,.39,2.22,2,2,0,0,0,.17.23l10.56,13.13a2.91,2.91,0,0,0,2.28,1.09H57a2.94,2.94,0,0,0,2.28-1.09l10.56-13.13a2.88,2.88,0,0,0,.56-2.45l-3.77-16.38a2.89,2.89,0,0,0-1.58-2L49.8,226.86A2.88,2.88,0,0,0,48.39,226.58Zm0,1.12a2.78,2.78,0,0,1,1.34.27l14.46,6.9a2.74,2.74,0,0,1,1.49,1.86l3.58,15.52a2.74,2.74,0,0,1-.54,2.32L58.72,267a2.77,2.77,0,0,1-2.16,1h-16a2.77,2.77,0,0,1-2.16-1l-10-12.44a1.77,1.77,0,0,1-.16-.22,2.73,2.73,0,0,1-.37-2.1l3.56-15.51a2.74,2.74,0,0,1,1.5-1.86L47.33,228a2.86,2.86,0,0,1,1.06-.27Z" transform="translate(-0.25 -88.09)"/><path class="e" d="M31.44,246.2l5-4.87v2.43h1.85v-7.3H58.74v7.3H60.6v-2.43l5,4.87-5,4.86v-2.43H58.74v7.3H38.33v-7.3H36.48v2.43Z" transform="translate(-0.25 -88.09)"/><path class="f" d="M40.72,240.9l7.82-2.19,7.82,2.19-7.82,2.19Z" transform="translate(-0.25 -88.09)"/><path class="f" d="M40.72,241.74v8l7.28,3.9,0-9.84Z" transform="translate(-0.25 -88.09)"/><path class="f" d="M56.36,241.74v8l-7.29,3.9,0-9.84Z" transform="translate(-0.25 -88.09)"/><path class="g" d="M13.58,285.81H12.17V282H8.23v3.85H6.84v-8.54H8.23v3.49h3.94v-3.49h1.41Z" transform="translate(-0.25 -88.09)"/><path class="g" d="M21.41,282.57A3.53,3.53,0,0,1,20.6,285a2.91,2.91,0,0,1-2.26.89,3.1,3.1,0,0,1-1.6-.41,2.64,2.64,0,0,1-1.07-1.17,4,4,0,0,1-.38-1.78,3.51,3.51,0,0,1,.81-2.46,3,3,0,0,1,2.27-.88,2.87,2.87,0,0,1,2.23.9A3.54,3.54,0,0,1,21.41,282.57Zm-4.7,0c0,1.49.55,2.24,1.65,2.24s1.64-.75,1.64-2.24-.55-2.22-1.65-2.22a1.38,1.38,0,0,0-1.25.58A2.9,2.9,0,0,0,16.71,282.57Z" transform="translate(-0.25 -88.09)"/><path class="g" d="M26.27,279.23a3.17,3.17,0,0,1,.68.06l-.13,1.28a2.48,2.48,0,0,0-.61-.07,1.74,1.74,0,0,0-1.33.54,1.94,1.94,0,0,0-.52,1.39v3.38H23v-6.46h1.08l.18,1.14h.07a2.49,2.49,0,0,1,.84-.92A1.94,1.94,0,0,1,26.27,279.23Z" transform="translate(-0.25 -88.09)"/><path class="g" d="M28.07,277.64a.77.77,0,0,1,.2-.57.82.82,0,0,1,.58-.2.77.77,0,0,1,.56.2.88.88,0,0,1,0,1.12.77.77,0,0,1-.56.2.82.82,0,0,1-.58-.2A.77.77,0,0,1,28.07,277.64Zm1.46,8.17H28.15v-6.46h1.38Z" transform="translate(-0.25 -88.09)"/><path class="g" d="M35.81,285.81H30.9V285l3.27-4.56H31.1v-1h4.61v1l-3.19,4.45h3.29Z" transform="translate(-0.25 -88.09)"/><path class="g" d="M42.94,282.57a3.53,3.53,0,0,1-.81,2.47,2.91,2.91,0,0,1-2.26.89,3.12,3.12,0,0,1-1.6-.41,2.7,2.7,0,0,1-1.07-1.17,4,4,0,0,1-.37-1.78,3.5,3.5,0,0,1,.8-2.46,3,3,0,0,1,2.28-.88,2.86,2.86,0,0,1,2.22.9A3.54,3.54,0,0,1,42.94,282.57Zm-4.7,0c0,1.49.55,2.24,1.65,2.24s1.64-.75,1.64-2.24-.55-2.22-1.65-2.22a1.39,1.39,0,0,0-1.25.58A2.9,2.9,0,0,0,38.24,282.57Z" transform="translate(-0.25 -88.09)"/><path class="g" d="M50.21,285.81H48.83v-4a1.76,1.76,0,0,0-.3-1.12,1.19,1.19,0,0,0-1-.37,1.52,1.52,0,0,0-1.27.52,2.83,2.83,0,0,0-.4,1.72v3.22H44.52v-6.46H45.6l.19.85h.07a2,2,0,0,1,.83-.72,2.91,2.91,0,0,1,1.19-.25,2.08,2.08,0,0,1,2.33,2.37Z" transform="translate(-0.25 -88.09)"/><path class="g" d="M54.53,284.82a3.17,3.17,0,0,0,1-.16v1a2.77,2.77,0,0,1-.58.16,3.67,3.67,0,0,1-.75.07c-1.3,0-2-.69-2-2.06v-3.48h-.88v-.61l.94-.5.47-1.37h.85v1.44h1.84v1H53.63v3.46a1,1,0,0,0,.25.73A.88.88,0,0,0,54.53,284.82Z" transform="translate(-0.25 -88.09)"/><path class="g" d="M60.87,285.81l-.27-.9h-.05a2.72,2.72,0,0,1-.94.81,3,3,0,0,1-1.22.21,2.09,2.09,0,0,1-1.49-.51,2,2,0,0,1-.53-1.46,1.72,1.72,0,0,1,.74-1.51,4.28,4.28,0,0,1,2.26-.55l1.12,0v-.34a1.31,1.31,0,0,0-.29-.93,1.19,1.19,0,0,0-.9-.31,3,3,0,0,0-.95.15,8.44,8.44,0,0,0-.88.34l-.44-1a4.61,4.61,0,0,1,1.15-.41,5.09,5.09,0,0,1,1.18-.15,2.79,2.79,0,0,1,1.86.54,2.1,2.1,0,0,1,.63,1.69v4.35Zm-2-.93a1.73,1.73,0,0,0,1.21-.42,1.52,1.52,0,0,0,.45-1.17v-.56l-.83,0a2.8,2.8,0,0,0-1.41.33,1,1,0,0,0-.44.88.87.87,0,0,0,.25.67A1.09,1.09,0,0,0,58.82,284.88Z" transform="translate(-0.25 -88.09)"/><path class="g" d="M65.14,285.81H63.77v-9.09h1.37Z" transform="translate(-0.25 -88.09)"/><path class="g" d="M76,279.85a2.47,2.47,0,0,1-.88,2,3.81,3.81,0,0,1-2.49.72h-.89v3.19h-1.4v-8.54h2.46a3.76,3.76,0,0,1,2.4.65A2.36,2.36,0,0,1,76,279.85Zm-4.26,1.59h.74a2.67,2.67,0,0,0,1.58-.37,1.38,1.38,0,0,0,.5-1.17,1.33,1.33,0,0,0-.45-1.1,2.23,2.23,0,0,0-1.4-.36h-1Z" transform="translate(-0.25 -88.09)"/><path class="g" d="M83.31,282.57A3.53,3.53,0,0,1,82.5,285a2.91,2.91,0,0,1-2.26.89,3.12,3.12,0,0,1-1.6-.41,2.64,2.64,0,0,1-1.07-1.17,4,4,0,0,1-.38-1.78,3.51,3.51,0,0,1,.81-2.46,3,3,0,0,1,2.27-.88,2.87,2.87,0,0,1,2.23.9A3.54,3.54,0,0,1,83.31,282.57Zm-4.7,0c0,1.49.55,2.24,1.65,2.24s1.64-.75,1.64-2.24-.55-2.22-1.65-2.22a1.38,1.38,0,0,0-1.25.58A2.9,2.9,0,0,0,78.61,282.57Z" transform="translate(-0.25 -88.09)"/><path class="g" d="M87.07,285.93a2.26,2.26,0,0,1-1.89-.88,4.84,4.84,0,0,1,0-4.93,2.28,2.28,0,0,1,1.91-.89,2.24,2.24,0,0,1,1.94.94h.07a7.62,7.62,0,0,1-.1-1.1v-2.35h1.38v9.09H89.31l-.24-.85H89A2.19,2.19,0,0,1,87.07,285.93Zm.37-1.11a1.48,1.48,0,0,0,1.23-.48,2.47,2.47,0,0,0,.4-1.54v-.2a2.84,2.84,0,0,0-.4-1.73,1.48,1.48,0,0,0-1.24-.52,1.27,1.27,0,0,0-1.12.59,3,3,0,0,0-.39,1.68,2.93,2.93,0,0,0,.38,1.63A1.27,1.27,0,0,0,87.44,284.82Z" transform="translate(-0.25 -88.09)"/><path class="g" d="M6.68,300.28l-.86-2.38H2.56l-.84,2.38H.25l3.19-8.58H5l3.2,8.58ZM5.45,296.7l-.8-2.33c-.05-.15-.14-.4-.24-.73s-.17-.58-.21-.74a14.58,14.58,0,0,1-.46,1.57L3,296.7Z" transform="translate(-0.25 -88.09)"/><path class="g" d="M13.7,300.28l-.19-.85h-.07a2,2,0,0,1-.82.71,2.71,2.71,0,0,1-1.2.25,2.38,2.38,0,0,1-1.76-.58A2.45,2.45,0,0,1,9.08,298v-4.23h1.39v4a1.75,1.75,0,0,0,.3,1.11,1.17,1.17,0,0,0,1,.37,1.53,1.53,0,0,0,1.27-.51,2.9,2.9,0,0,0,.4-1.74v-3.22h1.38v6.47Z" transform="translate(-0.25 -88.09)"/><path class="g" d="M19.15,299.28a3.17,3.17,0,0,0,1-.16v1a2.72,2.72,0,0,1-.58.17,4.56,4.56,0,0,1-.75.06c-1.3,0-1.95-.68-1.95-2.05v-3.49H16v-.6l.94-.51.47-1.37h.85v1.44h1.84v1H18.25v3.46a1,1,0,0,0,.25.74A.92.92,0,0,0,19.15,299.28Z" transform="translate(-0.25 -88.09)"/><path class="g" d="M27.18,297a3.52,3.52,0,0,1-.81,2.47,2.91,2.91,0,0,1-2.27.89,3.05,3.05,0,0,1-1.6-.41,2.7,2.7,0,0,1-1.07-1.17,4,4,0,0,1-.37-1.78,3.48,3.48,0,0,1,.81-2.45,2.9,2.9,0,0,1,2.27-.88,2.86,2.86,0,0,1,2.22.9A3.45,3.45,0,0,1,27.18,297Zm-4.71,0c0,1.5.56,2.24,1.66,2.24s1.63-.74,1.63-2.24-.55-2.21-1.64-2.21a1.42,1.42,0,0,0-1.26.57A2.9,2.9,0,0,0,22.47,297Z" transform="translate(-0.25 -88.09)"/><path class="g" d="M33.1,298.44a1.69,1.69,0,0,1-.69,1.45,3.36,3.36,0,0,1-2,.5,4.66,4.66,0,0,1-2.07-.39v-1.18a5.1,5.1,0,0,0,2.12.52c.85,0,1.27-.25,1.27-.76a.62.62,0,0,0-.14-.41,1.52,1.52,0,0,0-.46-.34,8.49,8.49,0,0,0-.9-.4,4.4,4.4,0,0,1-1.51-.86,1.63,1.63,0,0,1-.39-1.13,1.48,1.48,0,0,1,.67-1.29,3.2,3.2,0,0,1,1.82-.45,5.06,5.06,0,0,1,2.15.46l-.44,1a4.75,4.75,0,0,0-1.76-.43c-.72,0-1.09.21-1.09.62a.62.62,0,0,0,.29.51,6,6,0,0,0,1.23.58,6.06,6.06,0,0,1,1.17.57,1.63,1.63,0,0,1,.53.59A1.7,1.7,0,0,1,33.1,298.44Z" transform="translate(-0.25 -88.09)"/><path class="g" d="M37.19,300.39a2.83,2.83,0,0,1-2.23-.85,4.35,4.35,0,0,1,0-5,3,3,0,0,1,2.3-.87,4.21,4.21,0,0,1,1.84.38l-.41,1.1a4.07,4.07,0,0,0-1.44-.34c-1.12,0-1.68.74-1.68,2.23A2.65,2.65,0,0,0,36,298.7a1.44,1.44,0,0,0,1.22.55,3.43,3.43,0,0,0,1.74-.46V300a2.71,2.71,0,0,1-.79.31A4.78,4.78,0,0,1,37.19,300.39Z" transform="translate(-0.25 -88.09)"/><path class="g" d="M44.55,300.28l-.27-.9h-.05a2.59,2.59,0,0,1-.94.8,3,3,0,0,1-1.21.21,2.07,2.07,0,0,1-1.49-.51,1.92,1.92,0,0,1-.54-1.46,1.69,1.69,0,0,1,.75-1.5,4.24,4.24,0,0,1,2.26-.56l1.11,0V296a1.34,1.34,0,0,0-.28-.93,1.22,1.22,0,0,0-.9-.3,3.31,3.31,0,0,0-1,.14,7.68,7.68,0,0,0-.88.35l-.45-1a4.45,4.45,0,0,1,1.16-.42,5,5,0,0,1,1.18-.14,2.84,2.84,0,0,1,1.86.53,2.1,2.1,0,0,1,.63,1.69v4.36Zm-2-.94a1.69,1.69,0,0,0,1.2-.42,1.52,1.52,0,0,0,.45-1.17v-.56l-.83,0a2.87,2.87,0,0,0-1.41.32,1,1,0,0,0-.44.89.85.85,0,0,0,.26.66A1.09,1.09,0,0,0,42.51,299.34Z" transform="translate(-0.25 -88.09)"/><path class="g" d="M48.83,300.28H47.45v-9.1h1.38Z" transform="translate(-0.25 -88.09)"/><path class="g" d="M53.61,300.39a3.09,3.09,0,0,1-2.35-.88,3.31,3.31,0,0,1-.85-2.42,3.71,3.71,0,0,1,.78-2.49,2.74,2.74,0,0,1,2.17-.9,2.63,2.63,0,0,1,2,.77,3,3,0,0,1,.75,2.14v.74H51.82a2.13,2.13,0,0,0,.51,1.45,1.76,1.76,0,0,0,1.35.51,5.17,5.17,0,0,0,1.07-.11,5.54,5.54,0,0,0,1.06-.36V300a4.49,4.49,0,0,1-1,.33A6,6,0,0,1,53.61,300.39Zm-.25-5.65a1.39,1.39,0,0,0-1,.41,2,2,0,0,0-.47,1.21h2.94a1.79,1.79,0,0,0-.39-1.21A1.3,1.3,0,0,0,53.36,294.74Z" transform="translate(-0.25 -88.09)"/><path class="g" d="M61,293.7a3.31,3.31,0,0,1,.68.05L61.52,295a3.08,3.08,0,0,0-.61-.07,1.76,1.76,0,0,0-1.34.54,2,2,0,0,0-.51,1.4v3.38H57.69v-6.47h1.07l.18,1.14H59a2.76,2.76,0,0,1,.84-.92A2.06,2.06,0,0,1,61,293.7Z" transform="translate(-0.25 -88.09)"/><path class="g" d="M65.46,297a9.08,9.08,0,0,1,.45-2.9,7.36,7.36,0,0,1,1.3-2.37h1.2a8.43,8.43,0,0,0-1.24,2.47,9.08,9.08,0,0,0-.43,2.79,8.85,8.85,0,0,0,.43,2.76,8.5,8.5,0,0,0,1.23,2.42H67.21a6.93,6.93,0,0,1-1.3-2.32A8.86,8.86,0,0,1,65.46,297Z" transform="translate(-0.25 -88.09)"/><path class="g" d="M76.64,300.28H75.23v-3.86H71.29v3.86H69.9v-8.55h1.39v3.5h3.94v-3.5h1.41Z" transform="translate(-0.25 -88.09)"/><path class="g" d="M84.54,294.31a2.51,2.51,0,0,1-.87,2.06,3.92,3.92,0,0,1-2.5.71h-.89v3.2H78.89v-8.55h2.46a3.73,3.73,0,0,1,2.4.66A2.34,2.34,0,0,1,84.54,294.31Zm-4.26,1.59H81a2.63,2.63,0,0,0,1.57-.37,1.36,1.36,0,0,0,.51-1.17,1.33,1.33,0,0,0-.45-1.1,2.25,2.25,0,0,0-1.41-.36h-1Z" transform="translate(-0.25 -88.09)"/><path class="g" d="M91.55,300.28l-.85-2.38H87.43l-.83,2.38H85.12l3.2-8.58h1.52l3.2,8.58Zm-1.22-3.58-.8-2.33c-.06-.15-.14-.4-.24-.73s-.18-.58-.22-.74a12.6,12.6,0,0,1-.46,1.57l-.77,2.23Z" transform="translate(-0.25 -88.09)"/><path class="g" d="M96.35,297a8.84,8.84,0,0,1-.45,2.86,6.72,6.72,0,0,1-1.31,2.31H93.4a8.45,8.45,0,0,0,1.24-2.43,8.74,8.74,0,0,0,.43-2.75,9,9,0,0,0-.43-2.79,8.58,8.58,0,0,0-1.25-2.47h1.2a7.24,7.24,0,0,1,1.31,2.38A9.07,9.07,0,0,1,96.35,297Z" transform="translate(-0.25 -88.09)"/><path class="g" d="M294.36,212a3.49,3.49,0,0,1-.82,2.47,2.91,2.91,0,0,1-2.26.89,3.15,3.15,0,0,1-1.6-.41,2.73,2.73,0,0,1-1.07-1.18,4,4,0,0,1-.37-1.77,3.55,3.55,0,0,1,.8-2.46,2.93,2.93,0,0,1,2.28-.88,2.86,2.86,0,0,1,2.22.9A3.53,3.53,0,0,1,294.36,212Zm-4.71,0c0,1.49.55,2.23,1.66,2.23s1.63-.74,1.63-2.23-.55-2.22-1.65-2.22a1.41,1.41,0,0,0-1.25.57A2.94,2.94,0,0,0,289.65,212Z" transform="translate(-0.25 -88.09)"/><path class="g" d="M299.21,208.68a3.27,3.27,0,0,1,.69.06l-.14,1.28a2.35,2.35,0,0,0-.6-.07,1.76,1.76,0,0,0-1.34.54,1.92,1.92,0,0,0-.51,1.39v3.38h-1.38V208.8H297l.18,1.14h.07a2.58,2.58,0,0,1,.84-.92A2,2,0,0,1,299.21,208.68Z" transform="translate(-0.25 -88.09)"/><path class="g" d="M294.36,317.56a3.54,3.54,0,0,1-.81,2.48,2.94,2.94,0,0,1-2.26.89,3.16,3.16,0,0,1-1.61-.41,2.79,2.79,0,0,1-1.07-1.18,4,4,0,0,1-.37-1.78,3.5,3.5,0,0,1,.81-2.45,2.9,2.9,0,0,1,2.27-.88,2.85,2.85,0,0,1,2.22.9A3.45,3.45,0,0,1,294.36,317.56Zm-4.71,0c0,1.5.56,2.24,1.66,2.24s1.63-.74,1.63-2.24-.54-2.21-1.64-2.21a1.42,1.42,0,0,0-1.26.57A2.9,2.9,0,0,0,289.65,317.56Z" transform="translate(-0.25 -88.09)"/><path class="g" d="M299.22,314.23a3.23,3.23,0,0,1,.68.06l-.13,1.28a2.48,2.48,0,0,0-.61-.07,1.76,1.76,0,0,0-1.34.53,2,2,0,0,0-.51,1.4v3.38h-1.37v-6.47H297l.18,1.14h.07a2.63,2.63,0,0,1,.84-.91A2,2,0,0,1,299.22,314.23Z" transform="translate(-0.25 -88.09)"/><path class="g" d="M226.88,185.56V189h-1.4v-8.54h2.41a3.91,3.91,0,0,1,2.45.62,2.21,2.21,0,0,1,.8,1.87,2.34,2.34,0,0,1-1.66,2.27l2.41,3.78H230.3l-2-3.41Zm0-1.16h1a2.21,2.21,0,0,0,1.41-.36,1.32,1.32,0,0,0,.44-1.08,1.17,1.17,0,0,0-.47-1,2.62,2.62,0,0,0-1.43-.31h-.92Z" transform="translate(-0.25 -88.09)"/><path class="g" d="M235.81,189.09a3.15,3.15,0,0,1-2.36-.88,3.34,3.34,0,0,1-.85-2.42,3.63,3.63,0,0,1,.79-2.49,2.7,2.7,0,0,1,2.17-.91,2.67,2.67,0,0,1,2,.78,3,3,0,0,1,.74,2.14v.74H234a2.13,2.13,0,0,0,.51,1.45,1.8,1.8,0,0,0,1.35.5,5.17,5.17,0,0,0,1.07-.11,5.31,5.31,0,0,0,1.06-.36v1.12a4.53,4.53,0,0,1-1,.34A5.87,5.87,0,0,1,235.81,189.09Zm-.25-5.66a1.36,1.36,0,0,0-1.05.42,1.92,1.92,0,0,0-.47,1.21H237a1.82,1.82,0,0,0-.39-1.22A1.31,1.31,0,0,0,235.56,183.43Z" transform="translate(-0.25 -88.09)"/><path class="g" d="M243.16,189.09a2.3,2.3,0,0,1-1.91-.88h-.08c.06.54.08.87.08,1v2.65h-1.37v-9.34H241c0,.12.1.41.19.86h.07a2.17,2.17,0,0,1,1.93-1,2.24,2.24,0,0,1,1.89.88,3.93,3.93,0,0,1,.67,2.46,4,4,0,0,1-.68,2.47A2.28,2.28,0,0,1,243.16,189.09Zm-.33-5.58a1.43,1.43,0,0,0-1.2.48,2.49,2.49,0,0,0-.38,1.53v.21a3,3,0,0,0,.38,1.71,1.39,1.39,0,0,0,1.22.53,1.24,1.24,0,0,0,1.1-.59,3,3,0,0,0,.38-1.66,2.88,2.88,0,0,0-.38-1.65A1.27,1.27,0,0,0,242.83,183.51Z" transform="translate(-0.25 -88.09)"/><path class="g" d="M248.71,189h-1.37v-9.09h1.37Z" transform="translate(-0.25 -88.09)"/><path class="g" d="M250.59,180.79a.73.73,0,0,1,.21-.56.77.77,0,0,1,.57-.2.81.81,0,0,1,.57.2.77.77,0,0,1,.2.56.78.78,0,0,1-.2.56.81.81,0,0,1-.57.2.77.77,0,0,1-.57-.2A.75.75,0,0,1,250.59,180.79Zm1.46,8.18h-1.37v-6.46h1.37Z" transform="translate(-0.25 -88.09)"/><path class="g" d="M256.62,189.09a2.83,2.83,0,0,1-2.23-.86,4.33,4.33,0,0,1,0-5,2.93,2.93,0,0,1,2.3-.88,4.35,4.35,0,0,1,1.84.38l-.41,1.1a4.25,4.25,0,0,0-1.44-.33q-1.68,0-1.68,2.22a2.68,2.68,0,0,0,.42,1.64,1.46,1.46,0,0,0,1.22.54,3.55,3.55,0,0,0,1.74-.45v1.19a2.55,2.55,0,0,1-.79.31A4.15,4.15,0,0,1,256.62,189.09Z" transform="translate(-0.25 -88.09)"/><path class="g" d="M264,189l-.27-.9h0a2.59,2.59,0,0,1-.94.8,2.82,2.82,0,0,1-1.21.22,2,2,0,0,1-1.49-.52,1.89,1.89,0,0,1-.54-1.45,1.7,1.7,0,0,1,.75-1.51,4.23,4.23,0,0,1,2.26-.55l1.11,0v-.34a1.31,1.31,0,0,0-.28-.93,1.19,1.19,0,0,0-.9-.31,3,3,0,0,0-.95.15,7.65,7.65,0,0,0-.88.34l-.45-1a5.32,5.32,0,0,1,1.16-.42,5.57,5.57,0,0,1,1.18-.14,2.79,2.79,0,0,1,1.86.54,2.1,2.1,0,0,1,.63,1.69V189Zm-2-.93a1.69,1.69,0,0,0,1.2-.42,1.52,1.52,0,0,0,.45-1.17v-.56l-.83,0a2.87,2.87,0,0,0-1.41.32,1,1,0,0,0-.44.89.87.87,0,0,0,.26.67A1.09,1.09,0,0,0,261.94,188Z" transform="translate(-0.25 -88.09)"/><path class="g" d="M269.29,188a3.55,3.55,0,0,0,1-.16v1a2.46,2.46,0,0,1-.59.17,3.67,3.67,0,0,1-.75.07c-1.3,0-1.95-.69-1.95-2.06v-3.48h-.88v-.61l.95-.5.46-1.37h.85v1.44h1.84v1h-1.84V187a1,1,0,0,0,.25.73A.88.88,0,0,0,269.29,188Z" transform="translate(-0.25 -88.09)"/><path class="g" d="M271.51,180.79a.73.73,0,0,1,.2-.56.77.77,0,0,1,.57-.2.79.79,0,0,1,.57.2.77.77,0,0,1,.2.56.78.78,0,0,1-.2.56.79.79,0,0,1-.57.2.77.77,0,0,1-.57-.2A.74.74,0,0,1,271.51,180.79ZM273,189h-1.37v-6.46H273Z" transform="translate(-0.25 -88.09)"/><path class="g" d="M280.66,185.73a3.53,3.53,0,0,1-.81,2.47,2.94,2.94,0,0,1-2.27.89,3.15,3.15,0,0,1-1.6-.41,2.73,2.73,0,0,1-1.07-1.18,4,4,0,0,1-.37-1.77,3.51,3.51,0,0,1,.81-2.46,2.9,2.9,0,0,1,2.27-.88,2.86,2.86,0,0,1,2.22.9A3.5,3.5,0,0,1,280.66,185.73Zm-4.71,0c0,1.49.55,2.24,1.66,2.24s1.63-.75,1.63-2.24-.54-2.22-1.64-2.22a1.42,1.42,0,0,0-1.26.57A2.94,2.94,0,0,0,276,185.73Z" transform="translate(-0.25 -88.09)"/><path class="g" d="M287.92,189h-1.38v-4a1.76,1.76,0,0,0-.3-1.12,1.18,1.18,0,0,0-.95-.37A1.52,1.52,0,0,0,284,184a2.88,2.88,0,0,0-.4,1.72V189h-1.37v-6.46h1.07l.19.84h.08a1.94,1.94,0,0,1,.83-.71,2.7,2.7,0,0,1,1.19-.25,2.07,2.07,0,0,1,2.32,2.37Z" transform="translate(-0.25 -88.09)"/><path class="g" d="M293.62,181.5a2.33,2.33,0,0,0-1.9.85,4.47,4.47,0,0,0,0,4.74,2.33,2.33,0,0,0,1.92.81,5.19,5.19,0,0,0,1.05-.11c.34-.07.69-.17,1.06-.28v1.2a6.49,6.49,0,0,1-2.28.38,3.64,3.64,0,0,1-2.88-1.14,4.76,4.76,0,0,1-1-3.25,5.16,5.16,0,0,1,.49-2.33,3.38,3.38,0,0,1,1.41-1.53,4.24,4.24,0,0,1,2.17-.54,5.47,5.47,0,0,1,2.42.55l-.5,1.17a6.76,6.76,0,0,0-.92-.36A3.1,3.1,0,0,0,293.62,181.5Z" transform="translate(-0.25 -88.09)"/><path class="g" d="M303.16,185.73a3.54,3.54,0,0,1-.82,2.47,2.91,2.91,0,0,1-2.26.89,3.12,3.12,0,0,1-1.6-.41,2.73,2.73,0,0,1-1.07-1.18,4,4,0,0,1-.37-1.77,3.5,3.5,0,0,1,.8-2.46,2.93,2.93,0,0,1,2.28-.88,2.86,2.86,0,0,1,2.22.9A3.55,3.55,0,0,1,303.16,185.73Zm-4.71,0c0,1.49.55,2.24,1.65,2.24s1.64-.75,1.64-2.24-.55-2.22-1.65-2.22a1.41,1.41,0,0,0-1.25.57A2.94,2.94,0,0,0,298.45,185.73Z" transform="translate(-0.25 -88.09)"/><path class="g" d="M310.42,189H309v-4a1.76,1.76,0,0,0-.3-1.12,1.19,1.19,0,0,0-1-.37,1.5,1.5,0,0,0-1.27.52,2.81,2.81,0,0,0-.4,1.72V189h-1.38v-6.46h1.08l.19.84h.07a2,2,0,0,1,.83-.71,2.76,2.76,0,0,1,1.19-.25,2.08,2.08,0,0,1,2.33,2.37Z" transform="translate(-0.25 -88.09)"/><path class="g" d="M314.74,188a3.48,3.48,0,0,0,1-.16v1a2.24,2.24,0,0,1-.58.17,3.67,3.67,0,0,1-.75.07c-1.3,0-2-.69-2-2.06v-3.48h-.88v-.61l.94-.5.47-1.37h.85v1.44h1.84v1h-1.84V187a1,1,0,0,0,.25.73A.88.88,0,0,0,314.74,188Z" transform="translate(-0.25 -88.09)"/><path class="g" d="M320.31,182.39a3.27,3.27,0,0,1,.69.06l-.14,1.28a2.35,2.35,0,0,0-.6-.07,1.76,1.76,0,0,0-1.34.54,1.92,1.92,0,0,0-.51,1.39V189H317v-6.46h1.07l.18,1.14h.07a2.67,2.67,0,0,1,.84-.92A2,2,0,0,1,320.31,182.39Z" transform="translate(-0.25 -88.09)"/><path class="g" d="M327.93,185.73a3.53,3.53,0,0,1-.81,2.47,2.92,2.92,0,0,1-2.26.89,3.16,3.16,0,0,1-1.61-.41,2.73,2.73,0,0,1-1.07-1.18,4.11,4.11,0,0,1-.37-1.77,3.51,3.51,0,0,1,.81-2.46,2.91,2.91,0,0,1,2.27-.88,2.84,2.84,0,0,1,2.22.9A3.5,3.5,0,0,1,327.93,185.73Zm-4.7,0c0,1.49.55,2.24,1.65,2.24s1.64-.75,1.64-2.24-.55-2.22-1.65-2.22a1.42,1.42,0,0,0-1.26.57A2.94,2.94,0,0,0,323.23,185.73Z" transform="translate(-0.25 -88.09)"/><path class="g" d="M330.88,189h-1.37v-9.09h1.37Z" transform="translate(-0.25 -88.09)"/><path class="g" d="M334.22,189h-1.37v-9.09h1.37Z" transform="translate(-0.25 -88.09)"/><path class="g" d="M339,189.09a3.14,3.14,0,0,1-2.36-.88,3.34,3.34,0,0,1-.85-2.42,3.63,3.63,0,0,1,.79-2.49,3,3,0,0,1,4.19-.13,3,3,0,0,1,.74,2.14v.74h-4.31a2.13,2.13,0,0,0,.51,1.45,1.8,1.8,0,0,0,1.35.5,5.17,5.17,0,0,0,1.07-.11,5.31,5.31,0,0,0,1.06-.36v1.12a4.53,4.53,0,0,1-1,.34A5.87,5.87,0,0,1,339,189.09Zm-.26-5.66a1.36,1.36,0,0,0-1,.42,1.92,1.92,0,0,0-.47,1.21h2.93a1.82,1.82,0,0,0-.39-1.22A1.33,1.33,0,0,0,338.75,183.43Z" transform="translate(-0.25 -88.09)"/><path class="g" d="M346.36,182.39a3.23,3.23,0,0,1,.68.06l-.13,1.28a2.48,2.48,0,0,0-.61-.07,1.78,1.78,0,0,0-1.34.54,1.92,1.92,0,0,0-.51,1.39V189h-1.37v-6.46h1.08l.18,1.14h.07a2.49,2.49,0,0,1,.84-.92A1.94,1.94,0,0,1,346.36,182.39Z" transform="translate(-0.25 -88.09)"/><path class="g" d="M350.85,185.69a9.13,9.13,0,0,1,.45-2.9,7,7,0,0,1,1.31-2.36h1.19a8.37,8.37,0,0,0-1.24,2.46,9.13,9.13,0,0,0-.43,2.79,9,9,0,0,0,.43,2.77,8.44,8.44,0,0,0,1.23,2.41h-1.18a6.69,6.69,0,0,1-1.31-2.32A8.78,8.78,0,0,1,350.85,185.69Z" transform="translate(-0.25 -88.09)"/><path class="g" d="M356.69,185.56V189h-1.4v-8.54h2.41a3.91,3.91,0,0,1,2.45.62,2.21,2.21,0,0,1,.8,1.87,2.34,2.34,0,0,1-1.66,2.27L361.7,189h-1.59l-2-3.41Zm0-1.16h1a2.21,2.21,0,0,0,1.41-.36,1.32,1.32,0,0,0,.44-1.08,1.17,1.17,0,0,0-.47-1,2.64,2.64,0,0,0-1.43-.31h-.92Z" transform="translate(-0.25 -88.09)"/><path class="g" d="M366.58,181.5a2.33,2.33,0,0,0-1.9.85,4.47,4.47,0,0,0,0,4.74,2.33,2.33,0,0,0,1.92.81,5.19,5.19,0,0,0,1.05-.11c.34-.07.69-.17,1.05-.28v1.2a6.47,6.47,0,0,1-2.27.38,3.64,3.64,0,0,1-2.89-1.14,4.75,4.75,0,0,1-1-3.25,5.16,5.16,0,0,1,.49-2.33,3.38,3.38,0,0,1,1.41-1.53,4.21,4.21,0,0,1,2.17-.54,5.47,5.47,0,0,1,2.42.55L368.5,182a6.63,6.63,0,0,0-.91-.36A3.1,3.1,0,0,0,366.58,181.5Z" transform="translate(-0.25 -88.09)"/><path class="g" d="M372.71,185.69a8.9,8.9,0,0,1-.45,2.87,6.77,6.77,0,0,1-1.31,2.3h-1.18a8.25,8.25,0,0,0,1.23-2.42,8.85,8.85,0,0,0,.43-2.76,9.13,9.13,0,0,0-.43-2.79,8.16,8.16,0,0,0-1.25-2.46H371a7,7,0,0,1,1.31,2.37A9.11,9.11,0,0,1,372.71,185.69Z" transform="translate(-0.25 -88.09)"/><path class="c" d="M298.63,130.86a2.77,2.77,0,0,0-1.06.27L283.11,138a2.79,2.79,0,0,0-1.49,1.86l-3.57,15.52a2.73,2.73,0,0,0,.38,2.1c.05.07.1.15.16.22l10,12.44a2.77,2.77,0,0,0,2.16,1h16a2.76,2.76,0,0,0,2.17-1l10-12.44a2.72,2.72,0,0,0,.53-2.32l-3.57-15.51a2.76,2.76,0,0,0-1.5-1.86L300,131.13A2.83,2.83,0,0,0,298.63,130.86Z" transform="translate(-0.25 -88.09)"/><path class="d" d="M298.62,129.74a2.89,2.89,0,0,0-1.12.28l-15.26,7.29a2.92,2.92,0,0,0-1.58,2l-3.76,16.38a2.86,2.86,0,0,0,.4,2.22,1.88,1.88,0,0,0,.16.23L288,171.23a3,3,0,0,0,2.29,1.09h16.93a2.91,2.91,0,0,0,2.28-1.09l10.56-13.13a2.88,2.88,0,0,0,.56-2.45l-3.77-16.38a2.85,2.85,0,0,0-1.57-2L300,130A2.89,2.89,0,0,0,298.62,129.74Zm0,1.12a2.83,2.83,0,0,1,1.34.27l14.45,6.9a2.76,2.76,0,0,1,1.5,1.86l3.57,15.51a2.72,2.72,0,0,1-.53,2.32l-10,12.45a2.75,2.75,0,0,1-2.17,1h-16a2.77,2.77,0,0,1-2.16-1l-10-12.44a1.77,1.77,0,0,1-.16-.22,2.73,2.73,0,0,1-.38-2.1l3.57-15.52a2.75,2.75,0,0,1,1.49-1.85l14.46-6.91a2.77,2.77,0,0,1,1.06-.27Z" transform="translate(-0.25 -88.09)"/><path class="h" d="M294.58,140.39h15.88v11.15H294.58Z" transform="translate(-0.25 -88.09)"/><path class="i" d="M290.83,143.82h15.88V155H290.83Z" transform="translate(-0.25 -88.09)"/><path class="e" d="M287.09,147.26H303v11.15H287.09Z" transform="translate(-0.25 -88.09)"/><path class="j" d="M287.09,147.26H303v11.15H287.09Z" transform="translate(-0.25 -88.09)"/><path class="g" d="M254.07,392.67v3.41h-1.39v-8.55h2.41a4,4,0,0,1,2.45.62,2.23,2.23,0,0,1,.79,1.87,2.34,2.34,0,0,1-1.66,2.28l2.42,3.78H257.5l-2.05-3.41Zm0-1.16h1a2.24,2.24,0,0,0,1.42-.36,1.35,1.35,0,0,0,.44-1.08,1.15,1.15,0,0,0-.48-1,2.57,2.57,0,0,0-1.42-.32h-.93Z" transform="translate(-0.25 -88.09)"/><path class="g" d="M263,396.2a3.13,3.13,0,0,1-2.35-.88,3.35,3.35,0,0,1-.86-2.43,3.72,3.72,0,0,1,.79-2.49,2.74,2.74,0,0,1,2.17-.9,2.71,2.71,0,0,1,2,.77,3,3,0,0,1,.74,2.14v.75h-4.31a2.11,2.11,0,0,0,.51,1.44,1.76,1.76,0,0,0,1.35.51,5,5,0,0,0,1.06-.11,5.39,5.39,0,0,0,1.07-.36v1.12a4.53,4.53,0,0,1-1,.34A6.84,6.84,0,0,1,263,396.2Zm-.25-5.66a1.42,1.42,0,0,0-1.05.41,2,2,0,0,0-.47,1.21h2.94a1.79,1.79,0,0,0-.39-1.21A1.3,1.3,0,0,0,262.75,390.54Z" transform="translate(-0.25 -88.09)"/><path class="g" d="M270.36,396.2a2.27,2.27,0,0,1-1.91-.89h-.08c.05.55.08.88.08,1V399h-1.37v-9.34h1.11c0,.12.09.41.19.87h.07a2.14,2.14,0,0,1,1.93-1,2.24,2.24,0,0,1,1.88.87,4.8,4.8,0,0,1,0,4.94A2.27,2.27,0,0,1,270.36,396.2Zm-.34-5.58a1.42,1.42,0,0,0-1.19.48,2.49,2.49,0,0,0-.38,1.53v.2a3,3,0,0,0,.38,1.71,1.36,1.36,0,0,0,1.22.53,1.25,1.25,0,0,0,1.1-.58,3.1,3.1,0,0,0,.38-1.67,2.94,2.94,0,0,0-.38-1.64A1.29,1.29,0,0,0,270,390.62Z" transform="translate(-0.25 -88.09)"/><path class="g" d="M275.91,396.08h-1.37V387h1.37Z" transform="translate(-0.25 -88.09)"/><path class="g" d="M277.79,387.9a.69.69,0,0,1,.78-.76.68.68,0,0,1,.76.76.72.72,0,0,1-.2.55.73.73,0,0,1-.56.21.78.78,0,0,1-.58-.21A.76.76,0,0,1,277.79,387.9Zm1.46,8.18h-1.38v-6.47h1.38Z" transform="translate(-0.25 -88.09)"/><path class="g" d="M283.82,396.2a2.83,2.83,0,0,1-2.23-.86,3.57,3.57,0,0,1-.77-2.46,3.62,3.62,0,0,1,.8-2.51,3,3,0,0,1,2.31-.87,4.24,4.24,0,0,1,1.84.38l-.42,1.1a4.31,4.31,0,0,0-1.43-.34c-1.12,0-1.68.74-1.68,2.23a2.65,2.65,0,0,0,.42,1.63,1.42,1.42,0,0,0,1.22.55,3.49,3.49,0,0,0,1.74-.46v1.2a2.55,2.55,0,0,1-.79.31A4.85,4.85,0,0,1,283.82,396.2Z" transform="translate(-0.25 -88.09)"/><path class="g" d="M291.18,396.08l-.27-.9h-.05a2.68,2.68,0,0,1-.94.8,3,3,0,0,1-1.22.22,2.05,2.05,0,0,1-1.48-.52,1.91,1.91,0,0,1-.54-1.45,1.72,1.72,0,0,1,.74-1.51,4.28,4.28,0,0,1,2.27-.56l1.11,0v-.35a1.26,1.26,0,0,0-.29-.92,1.15,1.15,0,0,0-.89-.31,3.06,3.06,0,0,0-1,.15,6.54,6.54,0,0,0-.87.34l-.45-1a5.24,5.24,0,0,1,1.15-.42,5,5,0,0,1,1.18-.14,2.8,2.8,0,0,1,1.87.54,2.11,2.11,0,0,1,.62,1.68v4.36Zm-2-.94a1.7,1.7,0,0,0,1.2-.42,1.49,1.49,0,0,0,.45-1.17V393l-.83,0a2.81,2.81,0,0,0-1.41.32,1,1,0,0,0-.44.89.87.87,0,0,0,.25.67A1.17,1.17,0,0,0,289.14,395.14Z" transform="translate(-0.25 -88.09)"/><path class="g" d="M299.15,393.76a2.16,2.16,0,0,1-.82,1.79,3.6,3.6,0,0,1-2.27.65,5.61,5.61,0,0,1-2.38-.45v-1.33a6.52,6.52,0,0,0,1.24.44,5.57,5.57,0,0,0,1.23.15,1.94,1.94,0,0,0,1.22-.31,1,1,0,0,0,.4-.85,1.06,1.06,0,0,0-.36-.81,5.51,5.51,0,0,0-1.5-.79,4.06,4.06,0,0,1-1.65-1.08,2.29,2.29,0,0,1-.48-1.46,2.07,2.07,0,0,1,.76-1.69,3.22,3.22,0,0,1,2-.61A6,6,0,0,1,299,388l-.45,1.14a5.34,5.34,0,0,0-2-.48,1.58,1.58,0,0,0-1,.29,1,1,0,0,0-.35.78,1,1,0,0,0,.14.57,1.41,1.41,0,0,0,.46.45,7.46,7.46,0,0,0,1.16.56,6.49,6.49,0,0,1,1.38.73,2.17,2.17,0,0,1,.64.76A2.28,2.28,0,0,1,299.15,393.76Z" transform="translate(-0.25 -88.09)"/><path class="g" d="M303.48,396.2a3.13,3.13,0,0,1-2.35-.88,3.35,3.35,0,0,1-.85-2.43,3.71,3.71,0,0,1,.78-2.49,2.74,2.74,0,0,1,2.17-.9,2.71,2.71,0,0,1,2,.77,3,3,0,0,1,.74,2.14v.75h-4.31a2.11,2.11,0,0,0,.51,1.44,1.76,1.76,0,0,0,1.35.51,5.17,5.17,0,0,0,1.07-.11,5.54,5.54,0,0,0,1.06-.36v1.12a4.53,4.53,0,0,1-1,.34A6.84,6.84,0,0,1,303.48,396.2Zm-.25-5.66a1.42,1.42,0,0,0-1.05.41,2,2,0,0,0-.47,1.21h2.94a1.79,1.79,0,0,0-.39-1.21A1.3,1.3,0,0,0,303.23,390.54Z" transform="translate(-0.25 -88.09)"/><path class="g" d="M310,395.08a3.46,3.46,0,0,0,1-.15v1a2.83,2.83,0,0,1-.59.17,4.42,4.42,0,0,1-.74.07c-1.3,0-1.95-.69-1.95-2.06v-3.49h-.89v-.6l.95-.51.47-1.36h.85v1.43h1.84v1h-1.84v3.46a1,1,0,0,0,.24.74A.92.92,0,0,0,310,395.08Z" transform="translate(-0.25 -88.09)"/><path class="g" d="M314.87,392.8a9.13,9.13,0,0,1,.45-2.9,7.19,7.19,0,0,1,1.31-2.37h1.2a8.58,8.58,0,0,0-1.25,2.47,9.13,9.13,0,0,0-.43,2.79,8.85,8.85,0,0,0,.43,2.76,8.27,8.27,0,0,0,1.24,2.42h-1.19a6.86,6.86,0,0,1-1.31-2.32A8.78,8.78,0,0,1,314.87,392.8Z" transform="translate(-0.25 -88.09)"/><path class="g" d="M320.71,392.67v3.41h-1.4v-8.55h2.42a4,4,0,0,1,2.44.62A2.24,2.24,0,0,1,325,390a2.34,2.34,0,0,1-1.66,2.28l2.41,3.78h-1.59l-2-3.41Zm0-1.16h1a2.21,2.21,0,0,0,1.41-.36,1.32,1.32,0,0,0,.44-1.08,1.17,1.17,0,0,0-.47-1,2.61,2.61,0,0,0-1.43-.32h-.92Z" transform="translate(-0.25 -88.09)"/><path class="g" d="M331.89,393.76a2.19,2.19,0,0,1-.82,1.79,3.62,3.62,0,0,1-2.28.65,5.56,5.56,0,0,1-2.37-.45v-1.33a6.28,6.28,0,0,0,1.24.44,5.56,5.56,0,0,0,1.22.15,2,2,0,0,0,1.23-.31,1,1,0,0,0,.39-.85,1.06,1.06,0,0,0-.36-.81,5.4,5.4,0,0,0-1.49-.79,4.06,4.06,0,0,1-1.65-1.08,2.29,2.29,0,0,1-.48-1.46,2,2,0,0,1,.76-1.69,3.18,3.18,0,0,1,2-.61,6,6,0,0,1,2.44.54l-.44,1.14a5.34,5.34,0,0,0-2-.48,1.62,1.62,0,0,0-1,.29,1,1,0,0,0-.35.78,1.09,1.09,0,0,0,.14.57,1.52,1.52,0,0,0,.46.45,8.53,8.53,0,0,0,1.16.56A6,6,0,0,1,331,392a2.07,2.07,0,0,1,.64.76A2.28,2.28,0,0,1,331.89,393.76Z" transform="translate(-0.25 -88.09)"/><path class="g" d="M335.73,392.8a8.84,8.84,0,0,1-.45,2.86A6.88,6.88,0,0,1,334,398h-1.19a8.53,8.53,0,0,0,1.24-2.42,8.85,8.85,0,0,0,.43-2.76A9.35,9.35,0,0,0,334,390a8.58,8.58,0,0,0-1.25-2.47H334a7.24,7.24,0,0,1,1.31,2.38A9.07,9.07,0,0,1,335.73,392.8Z" transform="translate(-0.25 -88.09)"/><path class="c" d="M293.73,338a2.86,2.86,0,0,0-1.06.27l-14.45,6.9a2.72,2.72,0,0,0-1.49,1.86l-3.57,15.51a2.75,2.75,0,0,0,.37,2.11l.16.21,10,12.44a2.75,2.75,0,0,0,2.16,1h16a2.77,2.77,0,0,0,2.16-1l10-12.44a2.74,2.74,0,0,0,.54-2.32L311,347a2.74,2.74,0,0,0-1.5-1.86l-14.46-6.9A2.67,2.67,0,0,0,293.73,338Z" transform="translate(-0.25 -88.09)"/><path class="d" d="M293.73,336.84a2.9,2.9,0,0,0-1.12.29l-15.26,7.29a2.89,2.89,0,0,0-1.58,2L272,362.76a2.86,2.86,0,0,0,.39,2.22c.05.08.11.15.17.23l10.56,13.13a2.91,2.91,0,0,0,2.28,1.09h16.94a3,3,0,0,0,2.28-1.08l10.56-13.14a2.87,2.87,0,0,0,.56-2.44L312,346.38a2.89,2.89,0,0,0-1.58-2l-15.26-7.29A3,3,0,0,0,293.73,336.84Zm0,1.13a2.67,2.67,0,0,1,1.34.27l14.46,6.9A2.76,2.76,0,0,1,311,347l3.57,15.51a2.73,2.73,0,0,1-.54,2.32l-10,12.44a2.77,2.77,0,0,1-2.16,1h-16a2.75,2.75,0,0,1-2.16-1l-10-12.43-.16-.22a2.73,2.73,0,0,1-.37-2.1L276.72,347a2.76,2.76,0,0,1,1.5-1.86l14.45-6.9a2.86,2.86,0,0,1,1.06-.27Z" transform="translate(-0.25 -88.09)"/><path class="h" d="M289.68,347.49h15.88v11.16H289.68Z" transform="translate(-0.25 -88.09)"/><path class="i" d="M285.94,350.93h15.88v11.15H285.94Z" transform="translate(-0.25 -88.09)"/><path class="e" d="M282.19,354.36h15.88v11.16H282.19Z" transform="translate(-0.25 -88.09)"/><path class="j" d="M282.19,354.36h15.88v11.16H282.19Z" transform="translate(-0.25 -88.09)"/><path class="g" d="M266.53,288.17a4.29,4.29,0,0,1-1.17,3.24,4.76,4.76,0,0,1-3.39,1.12h-2.39V284h2.64a4.4,4.4,0,0,1,3.18,1.1A4.12,4.12,0,0,1,266.53,288.17Zm-1.47.05c0-2.05-1-3.07-2.87-3.07H261v6.2h1Q265.06,291.35,265.06,288.22Z" transform="translate(-0.25 -88.09)"/><path class="g" d="M271,292.64a3.13,3.13,0,0,1-2.36-.88,3.35,3.35,0,0,1-.85-2.42,3.68,3.68,0,0,1,.79-2.49,2.75,2.75,0,0,1,2.17-.91,2.64,2.64,0,0,1,2,.78,3,3,0,0,1,.75,2.14v.74h-4.31a2.13,2.13,0,0,0,.51,1.45,1.76,1.76,0,0,0,1.35.51,5.07,5.07,0,0,0,1.06-.11,6.12,6.12,0,0,0,1.07-.36v1.11a4.08,4.08,0,0,1-1,.34A6,6,0,0,1,271,292.64Zm-.25-5.66a1.39,1.39,0,0,0-1.05.42,2,2,0,0,0-.47,1.21h2.94a1.79,1.79,0,0,0-.39-1.21A1.31,1.31,0,0,0,270.79,287Z" transform="translate(-0.25 -88.09)"/><path class="g" d="M278.4,292.64a2.26,2.26,0,0,1-1.91-.88h-.08c0,.55.08.88.08,1v2.65h-1.37v-9.34h1.11c0,.12.09.41.19.87h.07a2.15,2.15,0,0,1,1.93-1,2.24,2.24,0,0,1,1.88.88,4,4,0,0,1,.68,2.46,3.92,3.92,0,0,1-.69,2.47A2.24,2.24,0,0,1,278.4,292.64Zm-.34-5.57a1.42,1.42,0,0,0-1.19.48,2.49,2.49,0,0,0-.38,1.53v.2a3,3,0,0,0,.38,1.71,1.38,1.38,0,0,0,1.22.53,1.25,1.25,0,0,0,1.1-.58,3.1,3.1,0,0,0,.38-1.67,3,3,0,0,0-.38-1.65A1.28,1.28,0,0,0,278.06,287.07Z" transform="translate(-0.25 -88.09)"/><path class="g" d="M284,292.53h-1.38v-9.1H284Z" transform="translate(-0.25 -88.09)"/><path class="g" d="M291.65,289.28a3.48,3.48,0,0,1-.82,2.47,2.87,2.87,0,0,1-2.26.89,3,3,0,0,1-1.6-.41,2.7,2.7,0,0,1-1.07-1.17,4,4,0,0,1-.37-1.78,3.53,3.53,0,0,1,.8-2.45,2.94,2.94,0,0,1,2.28-.89,2.87,2.87,0,0,1,2.22.91A3.5,3.5,0,0,1,291.65,289.28Zm-4.71,0c0,1.49.55,2.24,1.66,2.24s1.63-.75,1.63-2.24-.55-2.21-1.65-2.21a1.41,1.41,0,0,0-1.25.57A2.9,2.9,0,0,0,286.94,289.28Z" transform="translate(-0.25 -88.09)"/><path class="g" d="M292.24,286.06h1.5l1.31,3.67a7.06,7.06,0,0,1,.4,1.47h.05a5.43,5.43,0,0,1,.19-.78c.09-.31.59-1.76,1.48-4.36h1.49l-2.76,7.32a2.64,2.64,0,0,1-2.52,2,3.8,3.8,0,0,1-.89-.1v-1.09a3.11,3.11,0,0,0,.71.07,1.45,1.45,0,0,0,1.4-1.15l.24-.6Z" transform="translate(-0.25 -88.09)"/><path class="g" d="M305.09,292.53h-1.38v-4a1.8,1.8,0,0,0-.28-1.11,1,1,0,0,0-.88-.36,1.32,1.32,0,0,0-1.16.51,3,3,0,0,0-.38,1.72v3.23h-1.37v-6.47h1.08l.19.85H301a1.74,1.74,0,0,1,.78-.71,2.49,2.49,0,0,1,1.12-.26,2,2,0,0,1,2,1H305a2,2,0,0,1,.81-.75,2.54,2.54,0,0,1,1.19-.27,2.18,2.18,0,0,1,1.69.59,2.59,2.59,0,0,1,.53,1.78v4.22h-1.38v-4a1.8,1.8,0,0,0-.28-1.11,1,1,0,0,0-.88-.36,1.35,1.35,0,0,0-1.17.5,2.54,2.54,0,0,0-.37,1.53Z" transform="translate(-0.25 -88.09)"/><path class="g" d="M313.91,292.64a3.12,3.12,0,0,1-2.36-.88,3.31,3.31,0,0,1-.85-2.42,3.63,3.63,0,0,1,.79-2.49,2.74,2.74,0,0,1,2.17-.91,2.67,2.67,0,0,1,2,.78,3,3,0,0,1,.74,2.14v.74h-4.31a2.13,2.13,0,0,0,.51,1.45,1.76,1.76,0,0,0,1.35.51,5.17,5.17,0,0,0,1.07-.11,6,6,0,0,0,1.06-.36v1.11a4,4,0,0,1-1,.34A5.87,5.87,0,0,1,313.91,292.64Zm-.25-5.66a1.36,1.36,0,0,0-1.05.42,1.94,1.94,0,0,0-.47,1.21h2.93a1.84,1.84,0,0,0-.38-1.21A1.32,1.32,0,0,0,313.66,287Z" transform="translate(-0.25 -88.09)"/><path class="g" d="M323.67,292.53h-1.38v-4a1.76,1.76,0,0,0-.3-1.12,1.18,1.18,0,0,0-1-.36,1.52,1.52,0,0,0-1.27.51,2.83,2.83,0,0,0-.4,1.72v3.23H318v-6.47h1.08l.19.85h.07a1.81,1.81,0,0,1,.83-.71,2.76,2.76,0,0,1,1.19-.26,2.08,2.08,0,0,1,2.33,2.37Z" transform="translate(-0.25 -88.09)"/><path class="g" d="M328,291.53a3.17,3.17,0,0,0,1-.16v1a3.46,3.46,0,0,1-.58.17,4.56,4.56,0,0,1-.75.06c-1.3,0-2-.68-2-2.06V287.1h-.88v-.61l.94-.5.47-1.37h.85v1.44h1.84v1h-1.84v3.46a.94.94,0,0,0,.25.73A.88.88,0,0,0,328,291.53Z" transform="translate(-0.25 -88.09)"/><path class="c" d="M293.74,234.41a2.77,2.77,0,0,0-1.06.27l-14.46,6.91a2.7,2.7,0,0,0-1.49,1.86L273.16,259a2.69,2.69,0,0,0,.38,2.1l.15.22,10,12.44a2.77,2.77,0,0,0,2.16,1h16a2.77,2.77,0,0,0,2.16-1l10-12.44a2.7,2.7,0,0,0,.54-2.32L311,243.44a2.78,2.78,0,0,0-1.5-1.86l-14.45-6.9A2.83,2.83,0,0,0,293.74,234.41Z" transform="translate(-0.25 -88.09)"/><path class="d" d="M293.73,233.29a2.9,2.9,0,0,0-1.12.29l-15.26,7.28a2.93,2.93,0,0,0-1.58,2L272,259.2a2.88,2.88,0,0,0,.39,2.22c.06.08.11.16.17.23l10.56,13.14a3,3,0,0,0,2.28,1.08h16.94a2.91,2.91,0,0,0,2.28-1.09l10.56-13.13a2.88,2.88,0,0,0,.56-2.45L312,242.82a2.92,2.92,0,0,0-1.58-2l-15.26-7.29A3,3,0,0,0,293.73,233.29Zm0,1.12a2.83,2.83,0,0,1,1.34.27l14.45,6.91a2.74,2.74,0,0,1,1.5,1.86L314.6,259a2.7,2.7,0,0,1-.54,2.32l-10,12.44a2.77,2.77,0,0,1-2.16,1h-16a2.77,2.77,0,0,1-2.16-1l-10-12.44a1.7,1.7,0,0,1-.15-.22,2.69,2.69,0,0,1-.38-2.1l3.57-15.51a2.72,2.72,0,0,1,1.49-1.86l14.46-6.91a2.77,2.77,0,0,1,1.06-.27Z" transform="translate(-0.25 -88.09)"/><path class="e" d="M292.81,263.85h0a10.82,10.82,0,1,1,10.29-11.51l-4.28.28a6.53,6.53,0,1,0-6.21,6.95Z" transform="translate(-0.25 -88.09)"/><path class="e" d="M295,252.35l3.4,8.33,7.85-8.33Z" transform="translate(-0.25 -88.09)"/><path class="g" d="M159.18,289.54a1.71,1.71,0,0,1-.69,1.46,3.35,3.35,0,0,1-2,.5,4.67,4.67,0,0,1-2.08-.39v-1.19a5.12,5.12,0,0,0,2.12.53c.85,0,1.27-.26,1.27-.77a.64.64,0,0,0-.14-.41,1.71,1.71,0,0,0-.46-.33,7.65,7.65,0,0,0-.9-.4,4.23,4.23,0,0,1-1.51-.87,1.61,1.61,0,0,1-.39-1.12,1.48,1.48,0,0,1,.67-1.29,3.2,3.2,0,0,1,1.82-.46,5.15,5.15,0,0,1,2.16.47l-.45,1a4.75,4.75,0,0,0-1.76-.43c-.72,0-1.08.2-1.08.62a.61.61,0,0,0,.28.51,6.59,6.59,0,0,0,1.23.58,5.77,5.77,0,0,1,1.17.57,1.76,1.76,0,0,1,.54.59A1.78,1.78,0,0,1,159.18,289.54Z" transform="translate(-0.25 -88.09)"/><path class="g" d="M165.22,291.38l-.19-.84H165a1.92,1.92,0,0,1-.81.7,2.65,2.65,0,0,1-1.21.26,2.35,2.35,0,0,1-1.75-.58,2.4,2.4,0,0,1-.58-1.77v-4.23H162v4a1.69,1.69,0,0,0,.31,1.11,1.15,1.15,0,0,0,.95.37,1.5,1.5,0,0,0,1.27-.52,2.83,2.83,0,0,0,.41-1.73v-3.22h1.38v6.46Z" transform="translate(-0.25 -88.09)"/><path class="g" d="M171.57,284.8a2.26,2.26,0,0,1,1.88.88,4.8,4.8,0,0,1,0,4.94,2.49,2.49,0,0,1-3.8,0h-.1l-.25.76h-1v-9.09h1.38v2.16q0,.24,0,.72t0,.6h.06A2.16,2.16,0,0,1,171.57,284.8Zm-.36,1.13a1.43,1.43,0,0,0-1.2.48,2.91,2.91,0,0,0-.37,1.64v.09a3,3,0,0,0,.37,1.71,1.4,1.4,0,0,0,1.22.53,1.23,1.23,0,0,0,1.11-.58,3.06,3.06,0,0,0,.38-1.67C172.72,286.66,172.21,285.93,171.21,285.93Z" transform="translate(-0.25 -88.09)"/><path class="g" d="M179,284.8a3.17,3.17,0,0,1,.68.06l-.13,1.28a3.08,3.08,0,0,0-.61-.07,1.74,1.74,0,0,0-1.33.54,2,2,0,0,0-.52,1.4v3.37h-1.37v-6.46h1.08l.18,1.14h.07a2.49,2.49,0,0,1,.84-.92A2,2,0,0,1,179,284.8Z" transform="translate(-0.25 -88.09)"/><path class="g" d="M183.71,291.5a3.1,3.1,0,0,1-2.36-.88,3.31,3.31,0,0,1-.85-2.42,3.63,3.63,0,0,1,.79-2.49,2.71,2.71,0,0,1,2.16-.91,2.67,2.67,0,0,1,2,.78,3,3,0,0,1,.74,2.14v.74h-4.31a2.13,2.13,0,0,0,.51,1.45,1.76,1.76,0,0,0,1.35.51,5.17,5.17,0,0,0,1.07-.11,7,7,0,0,0,1.06-.36v1.11a4.08,4.08,0,0,1-1,.34A5.87,5.87,0,0,1,183.71,291.5Zm-.26-5.66a1.39,1.39,0,0,0-1,.42,2,2,0,0,0-.47,1.21h2.94a1.79,1.79,0,0,0-.39-1.21A1.31,1.31,0,0,0,183.45,285.84Z" transform="translate(-0.25 -88.09)"/><path class="g" d="M192.12,289.54a1.71,1.71,0,0,1-.69,1.46,3.35,3.35,0,0,1-2,.5,4.7,4.7,0,0,1-2.08-.39v-1.19a5.12,5.12,0,0,0,2.12.53c.85,0,1.27-.26,1.27-.77a.64.64,0,0,0-.14-.41,1.71,1.71,0,0,0-.46-.33,7,7,0,0,0-.9-.4,4.23,4.23,0,0,1-1.51-.87,1.61,1.61,0,0,1-.39-1.12,1.48,1.48,0,0,1,.67-1.29,3.2,3.2,0,0,1,1.82-.46,5.15,5.15,0,0,1,2.16.47l-.45,1a4.75,4.75,0,0,0-1.76-.43c-.72,0-1.08.2-1.08.62a.61.61,0,0,0,.28.51,6.46,6.46,0,0,0,1.24.58,5.91,5.91,0,0,1,1.16.57,1.76,1.76,0,0,1,.54.59A1.78,1.78,0,0,1,192.12,289.54Z" transform="translate(-0.25 -88.09)"/><path class="g" d="M199.34,288.14a3.52,3.52,0,0,1-.81,2.47,2.89,2.89,0,0,1-2.26.89,3.06,3.06,0,0,1-1.61-.41,2.7,2.7,0,0,1-1.07-1.17,4,4,0,0,1-.37-1.78,3.47,3.47,0,0,1,.81-2.45,2.9,2.9,0,0,1,2.27-.89,2.81,2.81,0,0,1,2.22.91A3.45,3.45,0,0,1,199.34,288.14Zm-4.71,0c0,1.49.56,2.24,1.66,2.24s1.64-.75,1.64-2.24-.55-2.21-1.65-2.21a1.42,1.42,0,0,0-1.26.57A2.9,2.9,0,0,0,194.63,288.14Z" transform="translate(-0.25 -88.09)"/><path class="g" d="M205.48,291.38l-.2-.84h-.07a1.92,1.92,0,0,1-.81.7,2.63,2.63,0,0,1-1.21.26,2.35,2.35,0,0,1-1.75-.58,2.4,2.4,0,0,1-.58-1.77v-4.23h1.38v4a1.75,1.75,0,0,0,.31,1.11,1.15,1.15,0,0,0,.95.37,1.5,1.5,0,0,0,1.27-.52,2.83,2.83,0,0,0,.41-1.73v-3.22h1.38v6.46Z" transform="translate(-0.25 -88.09)"/><path class="g" d="M211.79,284.8a3.27,3.27,0,0,1,.69.06l-.14,1.28a2.9,2.9,0,0,0-.6-.07,1.76,1.76,0,0,0-1.34.54,2,2,0,0,0-.51,1.4v3.37h-1.37v-6.46h1.07l.18,1.14h.07a2.67,2.67,0,0,1,.84-.92A2.06,2.06,0,0,1,211.79,284.8Z" transform="translate(-0.25 -88.09)"/><path class="g" d="M216.28,291.5a2.83,2.83,0,0,1-2.23-.85,4.35,4.35,0,0,1,0-5,3,3,0,0,1,2.3-.88,4.32,4.32,0,0,1,1.84.38l-.41,1.11a4.07,4.07,0,0,0-1.44-.34c-1.12,0-1.67.74-1.67,2.23a2.65,2.65,0,0,0,.41,1.63,1.47,1.47,0,0,0,1.23.55,3.53,3.53,0,0,0,1.73-.46v1.2a2.65,2.65,0,0,1-.78.31A5,5,0,0,1,216.28,291.5Z" transform="translate(-0.25 -88.09)"/><path class="g" d="M222.43,291.5a3.1,3.1,0,0,1-2.36-.88,3.31,3.31,0,0,1-.85-2.42,3.63,3.63,0,0,1,.79-2.49,2.71,2.71,0,0,1,2.16-.91,2.67,2.67,0,0,1,2,.78,3,3,0,0,1,.74,2.14v.74h-4.31a2.13,2.13,0,0,0,.51,1.45,1.76,1.76,0,0,0,1.35.51,5.17,5.17,0,0,0,1.07-.11,7,7,0,0,0,1.06-.36v1.11a4.08,4.08,0,0,1-1,.34A5.87,5.87,0,0,1,222.43,291.5Zm-.26-5.66a1.36,1.36,0,0,0-1,.42,1.94,1.94,0,0,0-.47,1.21h2.93a1.79,1.79,0,0,0-.39-1.21A1.31,1.31,0,0,0,222.17,285.84Z" transform="translate(-0.25 -88.09)"/><rect class="k" x="157.52" y="154.32" width="63.84" height="31.92"/><path class="d" d="M178,260.81a2.88,2.88,0,0,1-1.1,2.39,4.75,4.75,0,0,1-3,.86,7.21,7.21,0,0,1-3.16-.6V261.7a8.27,8.27,0,0,0,1.65.58,7.09,7.09,0,0,0,1.64.21,2.61,2.61,0,0,0,1.63-.42,1.37,1.37,0,0,0,.52-1.13,1.4,1.4,0,0,0-.48-1.08,7.3,7.3,0,0,0-2-1.06,5.24,5.24,0,0,1-2.2-1.44,3,3,0,0,1-.64-2,2.74,2.74,0,0,1,1-2.24,4.18,4.18,0,0,1,2.72-.82,8,8,0,0,1,3.26.72l-.59,1.52a7.09,7.09,0,0,0-2.71-.64,2.12,2.12,0,0,0-1.38.39,1.29,1.29,0,0,0-.46,1,1.5,1.5,0,0,0,.18.76,2,2,0,0,0,.62.6,10.26,10.26,0,0,0,1.54.74,8.54,8.54,0,0,1,1.84,1,2.83,2.83,0,0,1,.86,1A3.11,3.11,0,0,1,178,260.81Z" transform="translate(-0.25 -88.09)"/><path class="d" d="M183.46,264.06a3.79,3.79,0,0,1-3-1.14,5.81,5.81,0,0,1,.05-6.62,3.94,3.94,0,0,1,3.08-1.17,5.74,5.74,0,0,1,2.45.51l-.55,1.47a5.63,5.63,0,0,0-1.92-.45c-1.49,0-2.24,1-2.24,3a3.57,3.57,0,0,0,.56,2.18,2,2,0,0,0,1.63.73,4.76,4.76,0,0,0,2.32-.61v1.6a3.64,3.64,0,0,1-1.05.41A6.5,6.5,0,0,1,183.46,264.06Z" transform="translate(-0.25 -88.09)"/><path class="d" d="M193.28,263.91l-.37-1.2h-.06a3.64,3.64,0,0,1-1.26,1.07,4,4,0,0,1-1.62.28,2.71,2.71,0,0,1-2-.68,2.56,2.56,0,0,1-.71-1.94,2.27,2.27,0,0,1,1-2,5.66,5.66,0,0,1,3-.74l1.49-.05v-.46a1.71,1.71,0,0,0-.39-1.23,1.52,1.52,0,0,0-1.19-.41,4.11,4.11,0,0,0-1.27.19,8.62,8.62,0,0,0-1.17.46l-.59-1.31a6.61,6.61,0,0,1,1.53-.56,7.55,7.55,0,0,1,1.58-.19,3.73,3.73,0,0,1,2.48.72,2.81,2.81,0,0,1,.84,2.25v5.81Zm-2.73-1.25a2.23,2.23,0,0,0,1.6-.56,2,2,0,0,0,.6-1.56v-.75l-1.1,0a3.85,3.85,0,0,0-1.88.43,1.3,1.3,0,0,0-.59,1.18,1.15,1.15,0,0,0,.34.9A1.48,1.48,0,0,0,190.55,262.66Z" transform="translate(-0.25 -88.09)"/><path class="d" d="M199,263.91h-1.83V251.78H199Z" transform="translate(-0.25 -88.09)"/><path class="d" d="M205.35,264.06a4.17,4.17,0,0,1-3.14-1.17,4.43,4.43,0,0,1-1.13-3.23,4.9,4.9,0,0,1,1-3.32,3.64,3.64,0,0,1,2.89-1.21,3.56,3.56,0,0,1,2.7,1,4,4,0,0,1,1,2.85v1H203a2.83,2.83,0,0,0,.68,1.93,2.37,2.37,0,0,0,1.8.67,6.39,6.39,0,0,0,1.42-.14,8.2,8.2,0,0,0,1.42-.48v1.49a5.86,5.86,0,0,1-1.36.45A8.23,8.23,0,0,1,205.35,264.06Zm-.33-7.54a1.87,1.87,0,0,0-1.4.55,2.67,2.67,0,0,0-.63,1.62h3.92a2.42,2.42,0,0,0-.52-1.62A1.74,1.74,0,0,0,205,256.52Z" transform="translate(-0.25 -88.09)"/><rect class="k" x="456.14" y="63.72" width="47.88" height="31.92"/><path class="d" d="M474.62,165.36a3.34,3.34,0,0,1-1.17,2.74,5.18,5.18,0,0,1-3.33,1h-1.18v4.26h-1.86V161.92h3.28a4.94,4.94,0,0,1,3.19.87A3.13,3.13,0,0,1,474.62,165.36Zm-5.68,2.12h1a3.5,3.5,0,0,0,2.1-.5,1.8,1.8,0,0,0,.67-1.56,1.76,1.76,0,0,0-.6-1.46,3,3,0,0,0-1.87-.48h-1.29Z" transform="translate(-0.25 -88.09)"/><path class="d" d="M484.34,169a4.71,4.71,0,0,1-1.08,3.29,3.88,3.88,0,0,1-3,1.19,4.08,4.08,0,0,1-2.14-.55,3.58,3.58,0,0,1-1.43-1.57,5.35,5.35,0,0,1-.49-2.36,4.68,4.68,0,0,1,1.07-3.28,3.92,3.92,0,0,1,3-1.17,3.79,3.79,0,0,1,3,1.2A4.63,4.63,0,0,1,484.34,169Zm-6.27,0c0,2,.74,3,2.21,3s2.18-1,2.18-3-.73-3-2.2-3a1.87,1.87,0,0,0-1.67.77A3.85,3.85,0,0,0,478.07,169Z" transform="translate(-0.25 -88.09)"/><path class="d" d="M489.35,173.47a3,3,0,0,1-2.51-1.17,6.37,6.37,0,0,1,0-6.58,3,3,0,0,1,2.54-1.18,3,3,0,0,1,2.58,1.25h.1a11,11,0,0,1-.14-1.46v-3.14h1.84v12.12h-1.43l-.32-1.13h-.09A2.91,2.91,0,0,1,489.35,173.47Zm.5-1.48a2,2,0,0,0,1.64-.64,3.35,3.35,0,0,0,.53-2.06V169a3.89,3.89,0,0,0-.53-2.31,2,2,0,0,0-1.66-.69,1.68,1.68,0,0,0-1.49.79,4,4,0,0,0-.52,2.23,3.88,3.88,0,0,0,.51,2.18A1.68,1.68,0,0,0,489.85,172Z" transform="translate(-0.25 -88.09)"/><rect class="k" x="456.14" y="135.79" width="47.88" height="31.92"/><path class="d" d="M474.62,237.43a3.34,3.34,0,0,1-1.17,2.74,5.18,5.18,0,0,1-3.33,1h-1.18v4.26h-1.86V234h3.28a4.94,4.94,0,0,1,3.19.87A3.13,3.13,0,0,1,474.62,237.43Zm-5.68,2.12h1a3.5,3.5,0,0,0,2.1-.5,1.79,1.79,0,0,0,.67-1.55,1.77,1.77,0,0,0-.6-1.47,3,3,0,0,0-1.87-.48h-1.29Z" transform="translate(-0.25 -88.09)"/><path class="d" d="M484.34,241.06a4.71,4.71,0,0,1-1.08,3.29,3.88,3.88,0,0,1-3,1.19,4.08,4.08,0,0,1-2.14-.55,3.61,3.61,0,0,1-1.43-1.56,5.37,5.37,0,0,1-.49-2.37,4.68,4.68,0,0,1,1.07-3.28,3.92,3.92,0,0,1,3-1.17,3.79,3.79,0,0,1,3,1.2A4.65,4.65,0,0,1,484.34,241.06Zm-6.27,0c0,2,.74,3,2.21,3s2.18-1,2.18-3-.73-3-2.2-3a1.87,1.87,0,0,0-1.67.77A3.85,3.85,0,0,0,478.07,241.06Z" transform="translate(-0.25 -88.09)"/><path class="d" d="M489.35,245.54a3,3,0,0,1-2.51-1.17,6.37,6.37,0,0,1,0-6.58,3,3,0,0,1,2.54-1.18,3,3,0,0,1,2.58,1.25h.1a10.88,10.88,0,0,1-.14-1.46v-3.14h1.84v12.12h-1.43l-.32-1.13h-.09A2.91,2.91,0,0,1,489.35,245.54Zm.5-1.48a2,2,0,0,0,1.64-.64,3.35,3.35,0,0,0,.53-2.06v-.26a3.89,3.89,0,0,0-.53-2.31,2,2,0,0,0-1.66-.69,1.68,1.68,0,0,0-1.49.79,4,4,0,0,0-.52,2.23,3.92,3.92,0,0,0,.51,2.19A1.7,1.7,0,0,0,489.85,244.06Z" transform="translate(-0.25 -88.09)"/><rect class="k" x="448.16" y="246.02" width="63.84" height="31.92"/><path class="d" d="M467.48,347.66a3.3,3.3,0,0,1-1.17,2.73,5.12,5.12,0,0,1-3.33.95H461.8v4.27h-1.86v-11.4h3.28a4.93,4.93,0,0,1,3.2.88A3.13,3.13,0,0,1,467.48,347.66Zm-5.68,2.12h1a3.53,3.53,0,0,0,2.1-.5,1.8,1.8,0,0,0,.67-1.56,1.76,1.76,0,0,0-.6-1.46,2.91,2.91,0,0,0-1.87-.49H461.8Z" transform="translate(-0.25 -88.09)"/><path class="d" d="M477.21,351.28a4.68,4.68,0,0,1-1.09,3.3,3.86,3.86,0,0,1-3,1.18,4.17,4.17,0,0,1-2.14-.54,3.61,3.61,0,0,1-1.42-1.57,5.23,5.23,0,0,1-.5-2.37,4.68,4.68,0,0,1,1.07-3.27,3.89,3.89,0,0,1,3-1.18,3.79,3.79,0,0,1,3,1.21A4.67,4.67,0,0,1,477.21,351.28Zm-6.28,0c0,2,.74,3,2.21,3s2.18-1,2.18-3-.73-2.95-2.2-2.95a1.87,1.87,0,0,0-1.67.76A3.94,3.94,0,0,0,470.93,351.28Z" transform="translate(-0.25 -88.09)"/><path class="d" d="M482.22,355.76a3,3,0,0,1-2.52-1.17,6.43,6.43,0,0,1,0-6.58,3.06,3.06,0,0,1,2.54-1.18,3,3,0,0,1,2.59,1.26h.09a10.69,10.69,0,0,1-.13-1.47v-3.14h1.84v12.13H485.2l-.32-1.13h-.08A3,3,0,0,1,482.22,355.76Zm.49-1.48a2,2,0,0,0,1.64-.63,3.3,3.3,0,0,0,.53-2.06v-.26a3.83,3.83,0,0,0-.53-2.32,2,2,0,0,0-1.66-.68,1.67,1.67,0,0,0-1.48.78,4,4,0,0,0-.53,2.23,3.9,3.9,0,0,0,.51,2.19A1.71,1.71,0,0,0,482.71,354.28Z" transform="translate(-0.25 -88.09)"/><path class="d" d="M501,355.61h-1.84v-5.3a2.31,2.31,0,0,0-.4-1.49,1.54,1.54,0,0,0-1.27-.49,2,2,0,0,0-1.7.68,3.79,3.79,0,0,0-.54,2.3v4.3H493.4V347h1.43l.26,1.13h.09a2.53,2.53,0,0,1,1.11-.95,3.63,3.63,0,0,1,1.59-.34q3.11,0,3.1,3.16Z" transform="translate(-0.25 -88.09)"/><path class="b" d="M474.78,295.57a1.18,1.18,0,0,1,.3-.87,1.16,1.16,0,0,1,.86-.31,1.12,1.12,0,0,1,.86.32,1.2,1.2,0,0,1,.3.86,1.25,1.25,0,0,1-.3.88,1.14,1.14,0,0,1-.86.32,1.12,1.12,0,0,1-.86-.32A1.22,1.22,0,0,1,474.78,295.57Z" transform="translate(-0.25 -88.09)"/><path class="b" d="M479.17,295.57a1.18,1.18,0,0,1,.3-.87,1.13,1.13,0,0,1,.85-.31,1.15,1.15,0,0,1,.87.32,1.2,1.2,0,0,1,.29.86,1.25,1.25,0,0,1-.3.88,1.12,1.12,0,0,1-.86.32,1.1,1.1,0,0,1-.85-.32A1.22,1.22,0,0,1,479.17,295.57Z" transform="translate(-0.25 -88.09)"/><path class="b" d="M483.56,295.57a1.22,1.22,0,0,1,.29-.87,1.17,1.17,0,0,1,.86-.31,1.15,1.15,0,0,1,.87.32,1.43,1.43,0,0,1,0,1.74,1.32,1.32,0,0,1-1.72,0A1.26,1.26,0,0,1,483.56,295.57Z" transform="translate(-0.25 -88.09)"/><polygon class="b" points="149.5 170.59 141.52 164.61 141.52 170.09 84.44 170.09 84.44 171.09 141.52 171.09 141.52 176.58 149.5 170.59"/><polygon class="b" points="445.39 152.64 437.41 146.65 437.41 152.14 400.28 152.14 400.28 153.13 437.41 153.13 437.41 158.62 445.39 152.64"/><polygon class="b" points="442.84 263.3 437.39 254.94 435.51 260.1 400.62 247.4 400.28 248.34 435.17 261.04 433.3 266.19 442.84 263.3"/><polygon class="b" points="442.84 79.88 437.39 88.23 435.51 83.08 400.62 95.78 400.28 94.84 435.17 82.14 433.3 76.99 442.84 79.88"/></svg>